<svg width="440" height="108" viewBox="0 0 440 108" fill="none" xmlns="http://www.w3.org/2000/svg">
<path d="M146.043 86.8575C141.755 86.8575 137.725 86.0858 133.952 84.5422C130.236 82.9416 126.949 80.7121 124.091 77.8537C121.29 74.9954 119.089 71.7083 117.488 67.9925C115.945 64.2195 115.173 60.1607 115.173 55.816C115.173 51.4142 115.973 47.3553 117.574 43.6395C119.174 39.8665 121.404 36.5794 124.262 33.7782C127.121 30.9199 130.465 28.719 134.295 27.1755C138.125 25.5748 142.27 24.7745 146.729 24.7745C151.702 24.7745 156.276 25.7177 160.449 27.6042C164.622 29.4336 168.081 32.0347 170.825 35.4075L162.936 43.2965C161.049 40.8383 158.705 38.9518 155.904 37.637C153.103 36.3222 150.016 35.6647 146.643 35.6647C142.813 35.6647 139.411 36.5222 136.439 38.2372C133.523 39.8951 131.237 42.2389 129.579 45.2687C127.921 48.2414 127.092 51.7286 127.092 55.7302C127.092 59.7319 127.892 63.2762 129.493 66.3632C131.151 69.3931 133.38 71.7655 136.182 73.4805C139.04 75.1955 142.298 76.053 145.957 76.053C149.73 76.053 152.96 75.367 155.647 73.995C158.334 72.5658 160.392 70.5078 161.821 67.821C163.25 65.077 163.965 61.7327 163.965 57.7882L171.596 63.019L145.271 62.7617V52.6432H175.97V54.2725C175.97 61.4755 174.683 67.5066 172.111 72.3657C169.538 77.1677 165.994 80.7978 161.478 83.256C157.019 85.657 151.874 86.8575 146.043 86.8575ZM200.607 86.8575C196.434 86.8575 192.661 85.9142 189.288 84.0277C185.973 82.0841 183.314 79.483 181.313 76.2245C179.37 72.9088 178.398 69.2216 178.398 65.1627C178.398 61.1039 179.37 57.4738 181.313 54.2725C183.257 51.014 185.915 48.4415 189.288 46.555C192.661 44.6113 196.405 43.6395 200.521 43.6395C204.752 43.6395 208.525 44.6113 211.84 46.555C215.213 48.4415 217.872 51.014 219.815 54.2725C221.759 57.4738 222.731 61.1039 222.731 65.1627C222.731 69.2216 221.759 72.9088 219.815 76.2245C217.872 79.483 215.213 82.0841 211.84 84.0277C208.525 85.9142 204.78 86.8575 200.607 86.8575ZM200.521 76.396C202.637 76.396 204.495 75.9387 206.095 75.024C207.753 74.0522 209.011 72.7373 209.868 71.0795C210.783 69.3645 211.24 67.4208 211.24 65.2485C211.24 63.0762 210.783 61.1611 209.868 59.5032C208.954 57.8454 207.696 56.5592 206.095 55.6445C204.495 54.6727 202.637 54.1867 200.521 54.1867C198.463 54.1867 196.634 54.6727 195.033 55.6445C193.433 56.5592 192.175 57.8454 191.26 59.5032C190.346 61.1611 189.888 63.0762 189.888 65.2485C189.888 67.4208 190.346 69.3645 191.26 71.0795C192.175 72.7373 193.433 74.0522 195.033 75.024C196.634 75.9387 198.463 76.396 200.521 76.396ZM227.39 86V44.5827H238.623V86H227.39ZM236.994 39.695L221.731 29.748L229.019 21.0015L241.282 34.3785L236.994 39.695ZM260.238 86.9433C257.894 86.9433 255.579 86.6288 253.293 86C251.063 85.3712 249.005 84.5137 247.119 83.4275C245.232 82.2842 243.603 80.9122 242.231 79.3115L248.919 72.5372C250.348 74.1379 252.006 75.3384 253.893 76.1387C255.779 76.9391 257.866 77.3392 260.153 77.3392C261.982 77.3392 263.354 77.082 264.269 76.5675C265.24 76.053 265.726 75.2812 265.726 74.2522C265.726 73.1089 265.212 72.2228 264.183 71.594C263.211 70.9652 261.925 70.4507 260.324 70.0505C258.723 69.5932 257.037 69.1072 255.265 68.5927C253.55 68.0211 251.892 67.3065 250.291 66.449C248.691 65.5343 247.376 64.3052 246.347 62.7617C245.375 61.1611 244.889 59.1031 244.889 56.5877C244.889 53.9581 245.518 51.6714 246.776 49.7277C248.09 47.7841 249.948 46.2692 252.349 45.183C254.75 44.0968 257.58 43.5537 260.839 43.5537C264.269 43.5537 267.356 44.154 270.1 45.3545C272.901 46.555 275.216 48.3557 277.045 50.7567L270.271 57.531C269.013 55.9875 267.584 54.8727 265.984 54.1867C264.44 53.5007 262.754 53.1577 260.924 53.1577C259.266 53.1577 257.98 53.415 257.066 53.9295C256.208 54.444 255.779 55.1586 255.779 56.0732C255.779 57.1022 256.265 57.9026 257.237 58.4742C258.266 59.0459 259.581 59.5604 261.182 60.0177C262.782 60.4179 264.44 60.9038 266.155 61.4755C267.927 61.99 269.585 62.7332 271.129 63.705C272.729 64.6768 274.015 65.9631 274.987 67.5637C276.016 69.1644 276.531 71.2224 276.531 73.7377C276.531 77.7966 275.073 81.0265 272.158 83.4275C269.242 85.7713 265.269 86.9433 260.238 86.9433ZM288.136 86V80.4262H306.829C310.717 80.4262 313.775 79.3401 316.005 77.1677C318.234 74.9954 319.349 72.28 319.349 69.0215C319.349 66.9063 318.863 64.9912 317.891 63.2762C316.919 61.5612 315.519 60.2178 313.689 59.246C311.917 58.217 309.802 57.7025 307.344 57.7025H288.136V52.2145H306.401C309.602 52.2145 312.117 51.357 313.947 49.642C315.833 47.927 316.776 45.4974 316.776 42.3532C316.776 39.2091 315.776 36.7795 313.775 35.0645C311.774 33.3495 309.087 32.492 305.715 32.492H288.136V27.004H305.886C309.545 27.004 312.66 27.6614 315.233 28.9762C317.805 30.2911 319.749 32.0632 321.064 34.2927C322.379 36.5222 323.036 39.0376 323.036 41.8387C323.036 45.1544 322.179 48.0127 320.464 50.4137C318.749 52.7576 316.233 54.5583 312.918 55.816L313.518 53.758C317.348 54.9585 320.321 56.9307 322.436 59.6747C324.608 62.4187 325.694 65.6772 325.694 69.4502C325.694 72.5944 324.923 75.4242 323.379 77.9395C321.893 80.3977 319.692 82.3699 316.776 83.8562C313.918 85.2854 310.459 86 306.401 86H288.136ZM284.106 86V27.004H290.365V86H284.106ZM333.669 86V25.289H339.672V86H333.669ZM367.533 86.8575C363.646 86.8575 360.101 85.9142 356.9 84.0277C353.756 82.1412 351.24 79.5973 349.354 76.396C347.525 73.1947 346.61 69.6217 346.61 65.6772C346.61 61.7899 347.525 58.2742 349.354 55.13C351.24 51.9858 353.756 49.4991 356.9 47.6697C360.101 45.7832 363.646 44.84 367.533 44.84C371.477 44.84 375.022 45.7547 378.166 47.584C381.31 49.4133 383.797 51.9287 385.626 55.13C387.513 58.2742 388.456 61.7899 388.456 65.6772C388.456 69.6789 387.513 73.2804 385.626 76.4817C383.797 79.6259 381.31 82.1412 378.166 84.0277C375.022 85.9142 371.477 86.8575 367.533 86.8575ZM367.533 81.0265C370.391 81.0265 372.907 80.3691 375.079 79.0542C377.308 77.7394 379.052 75.9101 380.31 73.5662C381.625 71.2224 382.282 68.5927 382.282 65.6772C382.282 62.7617 381.625 60.1892 380.31 57.9597C379.052 55.6731 377.308 53.8723 375.079 52.5575C372.907 51.2427 370.391 50.5852 367.533 50.5852C364.732 50.5852 362.216 51.2427 359.987 52.5575C357.757 53.8723 356.014 55.6731 354.756 57.9597C353.499 60.1892 352.87 62.7617 352.87 65.6772C352.87 68.6499 353.499 71.3082 354.756 73.652C356.014 75.9387 357.757 77.7394 359.987 79.0542C362.216 80.3691 364.732 81.0265 367.533 81.0265ZM412.068 103.836C408.009 103.836 404.379 103.064 401.178 101.521C398.034 100.034 395.49 97.9193 393.546 95.1753L397.491 91.2308C399.091 93.4031 401.121 95.0895 403.579 96.29C406.037 97.4905 408.924 98.0908 412.24 98.0908C416.813 98.0908 420.443 96.8617 423.13 94.4035C425.874 91.9453 427.246 88.6011 427.246 84.3707V74.338L428.446 65.1627L427.246 56.0732V45.6975H433.248V84.3707C433.248 88.2581 432.362 91.6595 430.59 94.575C428.818 97.4905 426.331 99.7486 423.13 101.349C419.986 103.007 416.298 103.836 412.068 103.836ZM412.497 85.5712C408.781 85.5712 405.437 84.6852 402.464 82.913C399.491 81.1408 397.148 78.7112 395.433 75.6242C393.718 72.5372 392.86 69.0501 392.86 65.1627C392.86 61.2754 393.689 57.8168 395.347 54.787C397.062 51.7 399.406 49.2704 402.378 47.4982C405.351 45.7261 408.695 44.84 412.411 44.84C415.555 44.84 418.356 45.4402 420.815 46.6407C423.33 47.8412 425.331 49.5562 426.817 51.7857C428.361 53.9581 429.304 56.5306 429.647 59.5032V70.908C429.304 73.8235 428.361 76.396 426.817 78.6255C425.274 80.7978 423.273 82.5128 420.815 83.7705C418.356 84.971 415.584 85.5712 412.497 85.5712ZM413.612 79.826C416.413 79.826 418.842 79.2257 420.9 78.0252C423.015 76.8247 424.645 75.1383 425.788 72.966C426.989 70.7365 427.589 68.1354 427.589 65.1627C427.589 62.2472 426.989 59.7033 425.788 57.531C424.645 55.3587 423.015 53.6437 420.9 52.386C418.785 51.1283 416.327 50.4995 413.526 50.4995C410.725 50.4995 408.209 51.1283 405.98 52.386C403.807 53.6437 402.092 55.3587 400.835 57.531C399.634 59.7033 399.034 62.2472 399.034 65.1627C399.034 68.0211 399.663 70.565 400.921 72.7945C402.178 75.024 403.893 76.7676 406.066 78.0252C408.238 79.2257 410.753 79.826 413.612 79.826Z" fill="white"/>
<path d="M40.82 26.012L46.58 40.206C48.988 46.142 53.696 50.85 59.632 53.258L73.826 59.018C76.45 60.084 76.45 63.8 73.826 64.864L59.632 70.624C53.696 73.032 48.988 77.74 46.58 83.676L40.82 97.87C39.754 100.494 36.038 100.494 34.974 97.87L29.214 83.676C26.806 77.74 22.098 73.032 16.162 70.624L1.968 64.864C-0.656 63.798 -0.656 60.082 1.968 59.018L16.162 53.258C22.098 50.85 26.806 46.142 29.214 40.206L34.974 26.012C36.038 23.388 39.754 23.388 40.82 26.012ZM75.786 9.344L77.47 14.2C78.798 18.03 81.808 21.04 85.638 22.368L90.494 24.052C92.286 24.674 92.286 27.208 90.494 27.83L85.638 29.514C81.808 30.842 78.798 33.852 77.47 37.682L75.786 42.538C75.164 44.33 72.63 44.33 72.008 42.538L70.324 37.682C68.996 33.852 65.986 30.842 62.156 29.514L57.3 27.83C55.508 27.208 55.508 24.674 57.3 24.052L62.156 22.368C65.986 21.04 68.996 18.03 70.324 14.2L72.008 9.344C72.628 7.552 75.164 7.552 75.786 9.344Z" fill="white"/>
</svg>
