<svg width="92" height="92" viewBox="0 0 92 92" fill="none" xmlns="http://www.w3.org/2000/svg">
<path d="M40.82 18.012L46.58 32.206C48.988 38.142 53.696 42.85 59.632 45.258L73.826 51.018C76.45 52.084 76.45 55.8 73.826 56.864L59.632 62.624C53.696 65.032 48.988 69.74 46.58 75.676L40.82 89.87C39.754 92.494 36.038 92.494 34.974 89.87L29.214 75.676C26.806 69.74 22.098 65.032 16.162 62.624L1.968 56.864C-0.656 55.798 -0.656 52.082 1.968 51.018L16.162 45.258C22.098 42.85 26.806 38.142 29.214 32.206L34.974 18.012C36.038 15.388 39.754 15.388 40.82 18.012ZM75.786 1.344L77.47 6.2C78.798 10.03 81.808 13.04 85.638 14.368L90.494 16.052C92.286 16.674 92.286 19.208 90.494 19.83L85.638 21.514C81.808 22.842 78.798 25.852 77.47 29.682L75.786 34.538C75.164 36.33 72.63 36.33 72.008 34.538L70.324 29.682C68.996 25.852 65.986 22.842 62.156 21.514L57.3 19.83C55.508 19.208 55.508 16.674 57.3 16.052L62.156 14.368C65.986 13.04 68.996 10.03 70.324 6.2L72.008 1.344C72.628 -0.448 75.164 -0.448 75.786 1.344Z" fill="#0118D8"/>
</svg>
